<svg width="20" height="22" viewBox="0 0 20 22" fill="none" xmlns="http://www.w3.org/2000/svg">
<path d="M17.5 4.5L17.0982 11.0062M2.5 4.5L3.10461 14.5248C3.25945 17.0922 3.33688 18.3759 3.97868 19.299C4.296 19.7554 4.7048 20.1407 5.17905 20.4302C5.85035 20.84 6.68108 20.9631 8 21" stroke="#FF0000" stroke-width="1.5" stroke-linecap="round"/>
<path d="M18 14L11 20.9995M18 21L11 14.0005" stroke="#FF0000" stroke-width="1.5" stroke-linecap="round" stroke-linejoin="round"/>
<path d="M1 4.5H19M14.0557 4.5L13.3731 3.09173C12.9196 2.15626 12.6928 1.68852 12.3017 1.39681C12.215 1.3321 12.1231 1.27454 12.027 1.2247C11.5939 1 11.0741 1 10.0345 1C8.96883 1 8.43598 1 7.99568 1.23412C7.8981 1.28601 7.80498 1.3459 7.71729 1.41317C7.32164 1.7167 7.10063 2.20155 6.65861 3.17126L6.05292 4.5" stroke="#FF0000" stroke-width="1.5" stroke-linecap="round"/>
</svg>
