<svg width="22" height="20" viewBox="0 0 22 20" fill="none" xmlns="http://www.w3.org/2000/svg">
<path d="M20 9C20.1568 8.92091 20.2931 8.8212 20.4142 8.69552C21 8.08751 21 7.10893 21 5.15176C21 3.1946 21 2.21602 20.4142 1.60801C19.8284 1 18.8856 1 17 1L5 1C3.11438 1 2.17157 1 1.58579 1.60801C1 2.21602 1 3.1946 1 5.15176C1 7.10893 1 8.0875 1.58579 8.69552C1.70688 8.8212 1.84322 8.92091 2 9" stroke="#323233" stroke-width="1.5" stroke-linecap="round"/>
<path d="M17.9349 11.9453L17.2646 8.29684C16.9751 6.72096 16.8303 5.93303 16.257 5.46651C15.6837 5 14.8602 5 13.2132 5H8.78685C7.1398 5 6.31628 5 5.74298 5.46651C5.16968 5.93303 5.02492 6.72096 4.73538 8.29684L4.06506 11.9453C3.46408 15.2162 3.16359 16.8517 4.08889 17.9259C5.01419 19 6.72355 19 10.1423 19H11.8577C15.2765 19 16.9858 19 17.9111 17.9259C18.8364 16.8517 18.5359 15.2162 17.9349 11.9453Z" stroke="#323233" stroke-width="1.5" stroke-linecap="round"/>
<path d="M10 5L8.5 19" stroke="#323233" stroke-width="1.5"/>
<path d="M14 14L14 15" stroke="#323233" stroke-width="1.5" stroke-miterlimit="10" stroke-linecap="round" stroke-linejoin="round"/>
</svg>
